<svg xmlns="http://www.w3.org/2000/svg" viewBox="100 0 100 155" role="img" aria-hidden="true">
	<path d="M 144.680 12.770 C 148.476 24.966, 143.969 37.139, 128.491 56.500 C 114.296 74.255, 109 86.483, 109 101.500 C 109 109.021, 111.006 118.402, 113.559 122.823 C 115.098 125.489, 115.102 125.483, 114.537 121.227 C 113.225 111.357, 117.943 96.046, 125.190 86.653 C 126.952 84.369, 134.739 76.200, 142.495 68.500 C 158.973 52.139, 161.502 48.066, 161.431 38 C 161.397 33.176, 160.709 30.026, 158.763 25.782 C 156.255 20.315, 148.463 10.853, 144.896 8.944 C 143.329 8.106, 143.314 8.380, 144.680 12.770 M 172.472 57.873 C 172.819 59.452, 172.590 63.693, 171.962 67.296 C 170.333 76.651, 165.241 84.739, 155.533 93.396 C 145.679 102.182, 135.920 111.844, 134.218 114.500 C 133.128 116.200, 133.023 115.524, 133.517 110 C 134.264 101.644, 137.559 89.231, 141.183 81.118 L 144.034 74.737 140.250 78.118 C 133.534 84.121, 127.969 91.328, 124.233 98.865 C 121 105.387, 120.536 107.287, 120.178 115.470 C 119.884 122.188, 120.235 126.298, 121.464 130.524 C 123.163 136.367, 128.259 145.338, 131.306 147.849 C 132.802 149.081, 132.891 148.644, 132.345 142.791 C 131.552 134.297, 133.759 126.586, 138.209 122.306 C 141.328 119.306, 141.664 119.210, 144.626 120.470 C 146.504 121.269, 150.730 125.540, 155.218 131.178 C 167.114 146.121, 172.863 149.942, 183.500 149.974 L 189.500 149.993 186.500 148.119 C 182.391 145.552, 178.336 140.968, 171.635 131.314 C 165.583 122.596, 158.165 115.330, 154.333 114.369 C 153.050 114.047, 152 113.457, 152 113.058 C 152 112.659, 155.516 110.043, 159.814 107.243 C 172.954 98.685, 178.874 90.436, 179.755 79.457 C 180.297 72.715, 178.368 64.432, 174.879 58.519 C 172.360 54.249, 171.633 54.054, 172.472 57.873" stroke="none" fill="#f15a1a" fill-rule="evenodd"/>
</svg>
